<?xml version="1.0" standalone="no"?>
<!DOCTYPE svg PUBLIC "-//W3C//DTD SVG 20010904//EN"
 "http://www.w3.org/TR/2001/REC-SVG-20010904/DTD/svg10.dtd">
<svg version="1.0" xmlns="http://www.w3.org/2000/svg"
 width="1977.000000pt" height="1070.000000pt" viewBox="0 0 1977.000000 1070.000000"
 preserveAspectRatio="xMidYMid meet">
<metadata>
Created by potrace 1.16, written by Peter Selinger 2001-2019
</metadata>
<g transform="translate(0.000000,1070.000000) scale(0.100000,-0.100000)"
fill="#000000" stroke="none">
<path d="M0 9088 c0 -1728 0 -1736 51 -1980 68 -328 224 -639 452 -903 337
-390 882 -695 1482 -830 l120 -27 90 17 c131 25 372 96 510 150 614 241 1058
620 1305 1115 83 165 139 336 183 558 21 106 21 124 24 1810 l3 1702 -2110 0
-2110 0 0 -1612z m4120 -56 c0 -1693 0 -1679 -56 -1931 -157 -701 -697 -1248
-1508 -1527 -140 -48 -395 -114 -443 -114 -41 0 -290 63 -408 103 -450 154
-799 370 -1085 672 -273 288 -448 674 -500 1105 -6 54 -10 647 -10 1667 l0
1583 2005 0 2005 0 0 -1558z"/>
<path d="M301 10443 c101 -110 387 -421 399 -433 8 -8 62 -67 120 -130 58 -63
134 -146 170 -185 37 -38 95 -101 131 -140 35 -38 87 -94 116 -125 28 -30 60
-66 71 -80 16 -20 23 -22 33 -13 9 10 -8 56 -84 220 -179 390 -289 628 -326
708 -21 44 -50 108 -66 143 l-28 62 -280 0 -281 0 25 -27z"/>
<path d="M1016 10363 c37 -60 79 -128 94 -153 44 -73 239 -393 343 -562 53
-86 100 -163 103 -172 8 -22 34 -20 34 2 1 9 -52 236 -116 505 l-118 487 -203
0 -203 0 66 -107z"/>
<path d="M1495 10449 c4 -12 80 -220 170 -463 183 -494 200 -526 191 -344 -7
122 -13 277 -22 523 -4 99 -8 191 -10 205 -1 14 -3 42 -3 63 l-1 37 -166 0
c-164 0 -165 0 -159 -21z"/>
<path d="M1960 10466 c0 -5 83 -534 115 -728 14 -86 25 -159 25 -162 0 -4 6
-6 14 -6 8 0 17 12 20 28 7 31 136 856 136 866 0 3 -70 6 -155 6 -85 0 -155
-2 -155 -4z"/>
<path d="M2406 10408 c-3 -35 -8 -148 -11 -253 -3 -104 -8 -228 -10 -275 -16
-300 -16 -342 1 -338 11 2 64 134 180 448 90 245 167 453 170 463 5 16 -7 17
-160 17 l-164 0 -6 -62z"/>
<path d="M2855 10398 c-15 -66 -43 -183 -179 -743 -41 -172 -45 -219 -12 -185
12 14 62 96 376 610 59 96 137 223 173 283 l67 107 -204 0 -204 0 -17 -72z"/>
<path d="M3136 9913 c-141 -306 -255 -562 -252 -570 8 -20 26 -7 100 76 59 65
317 345 490 531 28 30 103 111 166 180 63 69 145 157 181 195 37 39 81 87 99
108 l32 37 -279 0 -280 0 -257 -557z"/>
<path d="M230 10113 l0 -311 128 -93 c70 -51 159 -116 197 -144 39 -29 139
-102 223 -163 l154 -112 59 0 c32 0 59 3 59 8 0 4 -31 48 -68 98 -70 94 -426
584 -620 852 -62 87 -117 161 -123 167 -5 5 -9 -106 -9 -302z"/>
<path d="M3583 9858 l-409 -563 59 -3 c49 -2 65 1 93 20 46 32 331 238 439
318 50 36 123 90 163 119 l72 53 0 309 c0 170 -2 309 -4 309 -2 0 -188 -253
-413 -562z"/>
<path d="M230 9466 l0 -176 190 0 c105 0 190 1 190 3 0 4 -326 306 -357 330
l-23 18 0 -175z"/>
<path d="M3807 9469 l-188 -174 187 -3 c103 -1 189 -1 191 1 2 2 2 82 1 177
l-3 174 -188 -175z"/>
<path d="M237 9154 c-11 -11 -8 -1591 3 -1729 71 -876 649 -1502 1653 -1791
65 -19 127 -34 138 -34 19 0 19 31 19 1780 l0 1780 -903 0 c-497 0 -906 -3
-910 -6z m966 -493 c30 -30 27 -89 -7 -117 -30 -26 -56 -30 -89 -12 -57 30
-64 92 -15 133 36 30 79 29 111 -4z m-16 -201 c7 -11 27 -27 45 -36 40 -21
125 -14 185 16 86 42 203 20 270 -51 94 -99 87 -223 -19 -347 -69 -80 -79
-136 -52 -294 l6 -38 -475 0 c-371 0 -476 3 -480 13 -2 6 2 39 10 72 24 103 8
160 -78 272 -74 97 -86 180 -40 272 55 107 197 152 311 100 93 -43 198 -33
233 21 7 13 23 20 42 20 19 0 35 -7 42 -20z m433 -805 c0 -13 -59 -15 -475
-15 -416 0 -475 2 -475 15 0 13 59 15 475 15 416 0 475 -2 475 -15z m-447 -54
c390 -1 447 -3 447 -16 0 -13 -60 -15 -480 -15 -379 0 -479 3 -477 13 2 14 26
25 47 21 8 -1 216 -3 463 -3z m191 -147 c27 -10 18 -20 -19 -21 -68 -2 -111
-52 -122 -141 -6 -53 10 -123 33 -147 52 -51 98 39 59 115 -11 21 -23 30 -40
30 -31 0 -33 16 -2 26 86 29 147 -59 102 -146 -17 -34 -62 -60 -100 -60 -38 0
-83 26 -100 60 -21 40 -19 135 4 186 32 69 127 120 185 98z m284 0 c33 -9 27
-20 -12 -20 -68 0 -114 -51 -123 -137 -7 -70 3 -123 28 -148 23 -23 42 -24 63
-3 37 37 4 144 -45 144 -28 0 -23 17 9 28 92 32 149 -98 76 -171 -72 -73 -183
-29 -199 77 -14 93 34 185 115 220 39 17 54 19 88 10z m-898 -159 l0 -155 25
0 c14 0 25 -4 25 -10 0 -6 -37 -10 -92 -10 -64 0 -88 3 -78 10 8 5 23 10 33
10 15 0 17 13 17 130 l0 130 -37 0 c-45 0 -35 12 27 34 84 29 80 36 80 -139z
m360 143 c0 -6 -27 -64 -60 -130 -32 -65 -65 -136 -71 -158 -7 -22 -18 -40
-25 -40 -14 0 -44 27 -44 39 0 4 27 47 61 94 33 48 67 103 75 122 l14 35 -74
0 c-65 0 -75 -3 -89 -22 l-16 -23 0 28 c-2 61 9 67 124 67 73 0 105 -4 105
-12z"/>
<path d="M694 8341 c-38 -23 -68 -92 -60 -136 4 -17 27 -56 53 -86 25 -30 57
-78 70 -106 l24 -53 154 0 c130 0 154 2 159 16 3 9 6 88 6 177 l0 162 -102 1
c-84 0 -112 4 -151 22 -60 27 -112 28 -153 3z"/>
<path d="M1433 8339 c-53 -24 -156 -35 -205 -21 l-38 10 0 -184 0 -184 158 0
157 0 19 46 c10 25 35 67 56 93 84 106 91 169 26 228 -30 28 -43 33 -83 32
-27 0 -67 -9 -90 -20z"/>
<path d="M2178 9150 c-1 -5 -2 -807 0 -1781 l2 -1772 40 7 c52 8 251 69 370
112 119 44 391 177 490 240 283 180 503 400 661 659 99 163 188 408 223 615
30 177 36 374 36 1153 l0 777 -909 0 c-597 0 -910 -3 -913 -10z m837 -721 l50
-25 3 -462 2 -462 -27 0 c-16 0 -48 7 -73 16 -37 13 -70 15 -180 9 -140 -7
-215 3 -317 41 -38 14 -43 19 -48 57 -10 71 -1 822 10 821 6 -1 20 -5 33 -9
17 -5 22 -2 22 11 0 13 7 16 35 11 24 -4 35 -2 35 6 0 9 53 12 203 12 198 0
204 -1 252 -26z m595 13 c0 -9 10 -11 35 -6 28 5 35 3 35 -10 0 -19 9 -20 44
-6 l26 10 0 -435 0 -434 -82 -28 c-78 -26 -93 -27 -268 -28 -120 0 -192 -4
-205 -11 -11 -7 -36 -14 -55 -15 l-35 -4 -2 452 c-3 515 -9 481 87 513 46 16
83 18 237 17 142 -2 183 -5 183 -15z m-801 -1088 c55 -12 56 -13 28 -42 -22
-23 -26 -33 -20 -65 l6 -38 -36 17 c-30 14 -41 15 -62 6 -39 -18 -44 -15 -38
26 4 29 0 41 -16 56 -29 26 -26 36 9 36 25 0 35 7 52 37 l22 36 15 -32 c9 -20
25 -34 40 -37z m631 44 c0 -20 33 -48 56 -48 33 0 37 -14 10 -39 -20 -19 -23
-29 -18 -64 l5 -41 -26 17 c-29 19 -63 22 -72 7 -3 -5 -13 -10 -21 -10 -10 0
-14 12 -14 38 0 26 -7 45 -20 57 -28 25 -25 35 10 35 24 0 35 7 51 35 19 32
39 39 39 13z m-332 -108 c11 -24 22 -31 53 -36 l40 -7 -27 -28 c-21 -22 -26
-35 -22 -63 4 -40 -2 -43 -37 -20 -21 14 -26 14 -54 0 -42 -22 -44 -21 -36 20
5 31 2 41 -20 64 l-27 28 39 6 c30 6 41 14 52 37 16 37 23 37 39 -1z"/>
<path d="M2530 8015 l0 -383 28 -6 c95 -20 157 -24 210 -16 85 14 151 12 210
-9 49 -17 52 -17 52 -1 0 36 -124 64 -221 50 -85 -13 -137 -12 -199 1 l-50 11
0 363 c0 313 -2 364 -15 369 -13 5 -15 -41 -15 -379z"/>
<path d="M2460 7982 l0 -400 80 -21 c69 -19 101 -21 247 -19 141 2 174 0 206
-14 36 -17 38 -17 35 0 -7 38 -54 47 -243 47 -143 0 -192 4 -237 18 l-58 17
-2 382 c-2 294 -6 382 -15 386 -10 3 -13 -81 -13 -396z"/>
<path d="M3623 8393 c-10 -4 -13 -87 -13 -369 l0 -364 -27 -7 c-29 -8 -126 -9
-269 -4 -64 3 -90 -1 -127 -17 -27 -12 -47 -28 -47 -36 0 -20 4 -20 43 1 32
17 102 20 272 13 39 -1 96 3 128 9 l57 12 1 337 c1 185 2 358 2 384 1 27 0 48
-3 47 -3 0 -11 -3 -17 -6z"/>
<path d="M3693 8372 c-10 -6 -13 -99 -15 -386 l-3 -379 -45 -15 c-33 -10 -96
-15 -230 -16 -151 -1 -192 -4 -222 -18 -21 -9 -38 -24 -38 -32 0 -13 5 -13 43
1 32 12 85 16 232 18 158 1 198 4 240 20 28 10 53 23 57 29 10 14 10 786 0
786 -4 0 -13 -4 -19 -8z"/>
<path d="M5250 9902 c0 -33 17 -42 86 -42 135 0 193 -36 213 -131 16 -75 15
-2247 -1 -2322 -7 -35 -21 -62 -42 -83 -33 -33 -38 -34 -193 -50 -61 -6 -63
-7 -63 -35 l0 -29 480 0 480 0 0 29 c0 29 -1 29 -67 35 -38 3 -93 12 -123 19
-67 15 -95 50 -107 135 -4 31 -8 264 -8 517 l0 460 195 0 c314 0 302 9 515
-420 207 -418 349 -668 506 -897 396 -572 810 -923 1218 -1029 50 -14 125 -22
219 -26 l142 -6 0 40 0 40 -92 5 c-105 6 -175 29 -280 90 -295 171 -670 595
-988 1118 -161 264 -430 784 -507 980 -49 123 -77 224 -64 228 5 2 49 26 98
55 131 77 266 215 322 327 65 133 83 259 61 427 -45 331 -223 497 -613 570
-66 13 -206 16 -734 20 l-653 5 0 -30z m1145 -106 c262 -70 426 -263 466 -551
13 -95 6 -246 -17 -330 -52 -196 -195 -334 -404 -391 -49 -13 -121 -19 -298
-23 -129 -3 -236 -4 -238 -2 -2 2 -4 292 -4 643 0 518 2 640 13 644 91 35 368
40 482 10z"/>
<path d="M13005 9479 c-250 -32 -508 -141 -681 -288 -176 -150 -289 -352 -341
-608 -26 -129 -24 -421 4 -558 84 -404 329 -671 730 -794 152 -47 259 -63 470
-68 266 -8 441 16 691 93 l113 35 -7 267 c-6 280 2 413 29 440 10 9 43 17 87
20 l71 5 -3 36 -3 36 -425 0 -425 0 -3 -37 -3 -38 53 0 c72 -1 197 -17 230
-31 17 -7 36 -29 50 -58 22 -44 23 -58 26 -332 l4 -286 -46 -12 c-86 -21 -252
-33 -396 -28 -117 4 -162 10 -234 31 -169 50 -279 118 -393 240 -121 130 -209
306 -256 514 -19 86 -22 124 -21 332 0 223 2 240 27 335 115 426 419 655 869
655 146 0 241 -19 343 -70 148 -72 246 -203 291 -390 10 -41 19 -76 20 -78 1
-2 23 0 48 3 l45 7 -4 42 c-3 22 -15 133 -27 245 -18 169 -25 207 -41 221 -41
39 -266 99 -442 120 -106 12 -350 11 -450 -1z"/>
<path d="M18951 9479 c-265 -47 -459 -215 -507 -438 -30 -141 -15 -248 52
-389 38 -78 59 -107 127 -175 90 -89 149 -127 392 -253 187 -97 253 -141 331
-220 84 -85 133 -184 141 -285 14 -186 -72 -346 -225 -417 -52 -24 -68 -27
-187 -27 -110 0 -140 4 -196 23 -180 62 -307 205 -378 427 -16 50 -32 111 -36
138 -4 26 -12 47 -17 47 -20 0 -98 -23 -98 -29 0 -15 63 -376 83 -476 21 -103
24 -111 55 -132 40 -26 119 -57 222 -86 64 -18 103 -21 270 -21 228 0 293 13
447 89 158 78 270 202 316 350 26 84 30 267 8 355 -23 93 -88 206 -160 279
-77 78 -166 138 -426 286 -293 167 -370 229 -423 343 -23 49 -27 70 -27 152 1
86 4 101 33 162 37 75 87 124 171 165 44 22 73 28 148 31 102 5 158 -6 238
-44 121 -57 190 -168 239 -386 6 -25 11 -28 47 -28 l41 0 -7 138 c-3 75 -10
178 -15 227 -6 50 -10 93 -10 96 0 13 -109 58 -190 79 -66 17 -120 23 -245 25
-88 2 -184 0 -214 -6z"/>
<path d="M7550 9406 l0 -34 73 -7 c103 -9 134 -21 155 -58 16 -29 18 -97 23
-792 6 -783 9 -826 49 -952 95 -292 331 -416 762 -400 229 8 380 47 608 154
87 40 126 54 144 49 14 -3 58 -44 103 -96 43 -49 85 -90 93 -89 8 0 31 6 50
13 l35 13 5 1029 c5 934 7 1032 22 1066 19 42 47 53 161 63 l67 7 0 34 0 34
-410 0 -410 0 0 -34 0 -34 78 -7 c145 -12 159 -26 172 -166 5 -52 10 -445 10
-875 l0 -781 -58 -55 c-94 -90 -191 -145 -332 -190 -66 -20 -94 -23 -240 -23
-154 1 -170 2 -244 28 -159 56 -253 155 -300 318 -44 150 -46 191 -46 924 0
461 3 713 10 738 15 52 46 68 151 80 l89 11 0 33 0 33 -410 0 -410 0 0 -34z"/>
<path d="M9975 9358 c-10 -122 -22 -442 -18 -450 2 -5 19 -8 38 -8 37 0 37 -1
55 95 32 168 73 257 135 295 66 41 128 51 363 57 l223 6 -3 -974 c-3 -884 -5
-977 -20 -1011 -25 -55 -51 -67 -176 -80 l-112 -11 0 -33 0 -34 470 0 470 0 0
33 0 34 -110 10 c-73 7 -120 17 -141 30 -66 38 -63 -5 -67 1067 l-3 969 223
-6 c409 -11 437 -34 514 -424 4 -19 11 -23 45 -23 l41 0 -6 113 c-3 61 -8 155
-11 207 -3 52 -8 123 -11 158 l-6 62 -943 0 -943 0 -7 -82z"/>
<path d="M14380 9406 l0 -33 96 -11 c108 -12 128 -24 144 -82 11 -42 15 -1832
4 -1890 -15 -77 -42 -94 -166 -105 l-78 -7 0 -34 0 -34 777 2 776 3 13 55 c41
174 99 488 93 495 -2 2 -21 6 -41 10 -37 7 -37 7 -48 -37 -25 -97 -62 -198
-89 -239 -57 -90 -146 -146 -283 -176 -107 -24 -370 -24 -515 1 l-113 19 0
489 0 489 273 -3 c352 -4 352 -4 377 -176 l12 -83 44 2 44 3 0 303 0 303 -44
0 c-49 0 -45 6 -62 -113 -8 -61 -40 -107 -84 -123 -24 -9 -114 -13 -297 -13
l-263 -1 0 466 0 467 278 -5 c252 -5 283 -7 342 -27 112 -38 157 -100 195
-268 8 -37 17 -78 20 -90 4 -17 13 -23 33 -23 51 0 54 8 48 121 -14 239 -17
286 -22 332 l-6 47 -729 0 -729 0 0 -34z"/>
<path d="M16310 9406 l0 -34 78 -6 c102 -8 143 -29 158 -81 17 -55 19 -1845 3
-1910 -16 -65 -35 -77 -144 -89 l-95 -10 0 -33 0 -33 410 0 410 0 0 33 0 33
-96 11 c-61 7 -102 17 -114 28 -35 32 -40 92 -40 485 l0 382 133 -4 c170 -4
191 -14 267 -126 31 -45 107 -180 170 -300 63 -119 130 -242 149 -272 50 -79
137 -167 205 -206 90 -53 147 -64 333 -64 l163 0 0 35 c0 33 -2 35 -36 35
-128 0 -213 73 -381 325 -71 107 -129 207 -260 455 -102 191 -113 213 -113
224 0 6 28 26 63 45 285 157 420 376 388 634 -33 276 -184 412 -511 462 -74
12 -211 15 -617 15 l-523 0 0 -34z m931 -90 c186 -40 312 -163 358 -349 17
-69 15 -232 -3 -311 -43 -184 -171 -311 -362 -360 -43 -11 -108 -16 -208 -16
l-146 0 0 514 0 514 58 10 c86 14 229 13 303 -2z"/>
<path d="M11650 5165 l0 -495 65 0 65 0 0 495 0 495 -65 0 -65 0 0 -495z"/>
<path d="M12870 5165 l0 -495 65 0 65 0 0 227 c0 221 1 227 24 267 66 113 226
115 276 3 17 -37 20 -67 20 -269 l0 -228 66 0 65 0 -3 263 c-3 233 -5 266 -22
297 -48 90 -113 130 -213 130 -75 0 -127 -19 -180 -64 l-33 -28 0 196 0 196
-65 0 -65 0 0 -495z"/>
<path d="M5705 5623 c-27 -2 -78 -5 -112 -9 l-63 -6 0 -468 c0 -290 4 -471 10
-475 22 -13 315 -6 375 10 138 36 207 114 213 241 3 41 -1 88 -8 110 -16 46
-85 117 -132 134 l-36 13 47 31 c66 44 96 103 95 186 -1 77 -18 114 -74 163
-63 54 -166 77 -315 70z m150 -114 c21 -6 54 -26 72 -44 29 -29 33 -39 33 -87
0 -107 -67 -156 -217 -157 l-83 -1 0 144 c0 106 3 146 13 149 23 10 142 7 182
-4z m42 -425 c66 -32 93 -73 93 -143 0 -122 -83 -181 -252 -181 l-78 0 0 181
0 182 93 -7 c67 -5 106 -14 144 -32z"/>
<path d="M6647 5148 c-87 -255 -157 -467 -157 -471 0 -4 30 -7 67 -5 l66 3 47
140 47 140 164 3 164 2 48 -145 48 -145 70 0 c38 0 69 3 69 8 0 4 -70 215
-157 469 l-158 463 -81 0 -80 0 -157 -462z m326 40 l43 -128 -134 0 c-102 0
-133 3 -130 13 2 6 29 93 62 192 32 99 60 187 63 195 3 8 15 -21 28 -65 13
-44 44 -137 68 -207z"/>
<path d="M8001 5584 c-39 -50 -15 -119 45 -130 53 -10 88 19 92 76 4 57 -17
80 -74 80 -34 0 -47 -5 -63 -26z"/>
<path d="M9410 5140 l0 -470 270 0 270 0 0 55 0 55 -205 0 -205 0 0 165 0 165
185 0 185 0 0 50 0 50 -185 0 -185 0 0 145 0 145 195 0 195 0 0 55 0 55 -260
0 -260 0 0 -470z"/>
<path d="M11981 5584 c-39 -50 -15 -119 45 -130 53 -10 88 19 92 76 4 57 -17
80 -74 80 -34 0 -47 -5 -63 -26z"/>
<path d="M15309 5589 c-128 -20 -216 -118 -255 -285 -23 -100 -15 -335 15
-418 59 -165 136 -228 280 -227 156 0 258 95 297 280 18 88 18 308 -1 389 -46
193 -168 288 -336 261z m101 -114 c76 -39 111 -131 117 -310 9 -253 -56 -405
-175 -405 -112 0 -182 137 -182 360 0 160 33 273 97 331 45 42 92 50 143 24z"/>
<path d="M14471 5570 c-29 -11 -68 -31 -87 -45 l-34 -26 16 -37 c8 -20 18 -40
23 -45 4 -4 38 8 75 28 54 28 79 35 124 35 112 0 172 -58 172 -164 0 -116 -60
-205 -289 -429 -134 -131 -141 -140 -141 -177 l0 -40 295 0 295 0 0 55 0 55
-196 0 -197 0 141 144 c123 126 146 155 184 232 40 82 43 93 43 168 -1 68 -5
89 -28 133 -29 56 -76 98 -134 119 -58 20 -198 17 -262 -6z"/>
<path d="M16653 5298 c-196 -281 -203 -293 -203 -340 l0 -48 210 0 210 0 0
-120 0 -120 60 0 60 0 0 120 0 120 65 0 65 0 0 55 0 55 -65 0 -65 0 0 285 0
285 -67 0 -68 -1 -202 -291z m214 -275 c-3 -2 -66 -2 -141 -1 l-137 3 113 156
c62 85 124 176 138 202 l25 47 3 -201 c1 -111 1 -204 -1 -206z"/>
<path d="M15948 5531 c-49 -26 -90 -50 -93 -53 -3 -3 0 -28 7 -56 l11 -52 84
44 83 45 0 -395 0 -394 60 0 60 0 0 455 0 455 -62 0 c-56 -1 -73 -6 -150 -49z"/>
<path d="M11077 5359 c-89 -14 -179 -86 -218 -173 -27 -62 -42 -163 -34 -232
13 -123 99 -244 193 -272 97 -29 219 -6 277 52 l25 25 0 -60 c0 -93 -36 -160
-105 -197 -47 -25 -176 -21 -243 8 -31 13 -57 19 -61 14 -5 -5 -14 -27 -21
-48 -11 -35 -11 -41 6 -53 59 -43 245 -59 347 -29 64 19 127 62 155 108 45 73
50 123 55 496 l4 352 -58 0 -59 0 0 -45 0 -46 -30 35 c-48 54 -139 80 -233 65z
m139 -118 c23 -10 54 -36 70 -57 28 -35 29 -43 32 -155 5 -149 -15 -197 -100
-240 -94 -48 -209 8 -247 120 -16 48 -14 160 4 213 18 50 74 110 120 126 45
15 75 14 121 -7z"/>
<path d="M8551 5340 c-24 -11 -59 -36 -77 -56 l-34 -35 0 50 0 51 -62 0 -61 0
6 -137 c4 -75 7 -228 7 -340 l0 -203 65 0 65 0 0 222 c0 205 2 225 21 265 57
119 227 125 279 10 17 -37 20 -67 20 -269 l0 -228 66 0 65 0 -3 263 c-3 246
-4 264 -25 302 -27 51 -68 90 -115 109 -54 23 -162 20 -217 -4z"/>
<path d="M10311 5340 c-24 -11 -59 -36 -77 -56 l-34 -35 0 50 0 51 -62 0 -61
0 6 -137 c4 -75 7 -228 7 -340 l0 -203 65 0 65 0 0 222 c0 205 2 225 21 265
57 119 227 125 279 10 17 -37 20 -67 20 -269 l0 -228 66 0 65 0 -3 263 c-3
246 -4 264 -25 302 -27 51 -68 90 -115 109 -54 23 -162 20 -217 -4z"/>
<path d="M12390 5338 c-67 -35 -103 -86 -108 -157 -7 -99 40 -155 183 -216 93
-40 115 -62 115 -115 0 -30 -6 -44 -31 -64 -25 -22 -41 -26 -90 -26 -34 0 -80
8 -111 20 -29 11 -55 16 -59 12 -12 -13 -30 -82 -24 -92 12 -20 110 -40 194
-40 65 0 97 5 131 21 89 40 120 87 120 181 0 102 -43 151 -180 208 -41 17 -85
40 -97 52 -45 43 -21 118 43 134 35 9 117 -2 153 -20 l29 -16 16 47 c9 26 16
50 16 54 0 17 -98 39 -175 39 -64 0 -90 -5 -125 -22z"/>
<path d="M8000 5010 l0 -340 65 0 65 0 0 340 0 340 -65 0 -65 0 0 -340z"/>
<path d="M11980 5010 l0 -340 65 0 65 0 0 340 0 340 -65 0 -65 0 0 -340z"/>
<path d="M13880 5045 l0 -45 175 0 175 0 0 45 0 45 -175 0 -175 0 0 -45z"/>
<path d="M6265 4815 c-48 -47 -21 -150 40 -156 76 -6 105 19 105 89 0 38 -5
53 -23 70 -33 31 -90 30 -122 -3z"/>
<path d="M7415 4815 c-48 -47 -21 -150 40 -156 76 -6 105 19 105 89 0 38 -5
53 -23 70 -33 31 -90 30 -122 -3z"/>
<path d="M9090 3865 l0 -255 35 0 35 0 0 125 c0 120 1 127 25 150 34 35 86 34
114 -1 19 -24 21 -40 21 -150 l0 -124 35 0 35 0 0 135 c0 145 -8 179 -52 209
-32 22 -106 20 -145 -4 l-33 -20 0 95 0 95 -35 0 -35 0 0 -255z"/>
<path d="M9890 3865 l0 -255 35 0 35 0 0 255 0 255 -35 0 -35 0 0 -255z"/>
<path d="M5500 4093 c0 -5 -7 -98 -15 -208 -21 -284 -21 -275 15 -275 38 0 38
1 47 220 l8 175 65 -197 c62 -192 65 -198 91 -198 25 0 29 7 68 113 23 61 54
150 70 197 l28 85 7 -120 c3 -66 9 -155 12 -197 l6 -78 35 0 34 0 -6 68 c-6
75 -25 377 -25 405 0 15 -7 18 -46 15 l-46 -3 -44 -120 c-24 -66 -54 -150 -66
-186 l-21 -66 -58 171 c-31 94 -60 179 -64 189 -5 12 -19 17 -51 17 -24 0 -44
-3 -44 -7z"/>
<path d="M7797 4093 c-4 -3 -7 -114 -7 -245 l0 -238 35 0 35 0 0 94 0 94 70 4
c108 6 164 58 164 153 0 104 -56 145 -200 145 -50 0 -94 -3 -97 -7z m177 -57
c77 -32 65 -147 -18 -174 -22 -7 -52 -10 -68 -7 l-28 7 0 87 c0 48 3 91 7 94
11 12 72 8 107 -7z"/>
<path d="M6330 3953 c-14 -9 -28 -22 -32 -27 -4 -6 -8 -1 -8 12 0 19 -5 22
-36 22 -33 0 -36 -2 -30 -22 3 -13 6 -92 6 -175 l0 -153 35 0 35 0 0 125 c0
120 1 127 25 150 34 35 86 34 114 -1 19 -24 21 -40 21 -150 l0 -124 35 0 35 0
0 135 c0 145 -8 179 -52 209 -30 22 -117 21 -148 -1z"/>
<path d="M6689 3948 c-104 -60 -113 -251 -15 -321 44 -31 161 -32 202 -1 54
40 68 70 72 149 4 66 1 80 -22 118 -15 27 -39 51 -60 61 -49 23 -133 20 -177
-6z m125 -38 c58 -22 86 -132 51 -200 -20 -38 -68 -63 -104 -55 -104 23 -116
215 -16 256 27 11 39 11 69 -1z"/>
<path d="M7115 3945 c-23 -22 -25 -23 -25 -5 0 16 -7 20 -36 20 -33 0 -36 -2
-30 -22 3 -13 6 -92 6 -175 l0 -153 35 0 35 0 0 119 c0 111 2 122 23 147 17
19 33 27 55 27 30 0 32 3 32 34 0 31 -2 33 -35 33 -25 0 -44 -8 -60 -25z"/>
<path d="M8204 3961 c-51 -22 -71 -102 -38 -150 9 -13 41 -34 70 -47 60 -26
80 -53 64 -84 -15 -29 -57 -36 -106 -18 -43 15 -43 15 -49 -11 -9 -36 17 -51
87 -51 97 0 138 32 138 107 0 52 -23 81 -86 109 -67 29 -83 55 -53 85 21 21
54 22 101 4 13 -5 19 0 24 20 3 14 3 29 0 33 -11 10 -129 13 -152 3z"/>
<path d="M8850 3959 c-65 -26 -103 -90 -104 -174 -1 -68 24 -126 67 -159 29
-22 115 -32 172 -22 32 6 36 10 33 34 -2 21 -8 26 -23 24 -117 -18 -179 25
-179 123 0 95 72 148 166 122 24 -6 28 -4 34 19 4 17 2 29 -7 35 -19 12 -128
10 -159 -2z"/>
<path d="M9549 3948 c-104 -60 -113 -251 -15 -321 44 -31 161 -32 202 -1 54
40 68 70 72 149 4 66 1 80 -22 118 -15 27 -39 51 -60 61 -49 23 -133 20 -177
-6z m125 -38 c58 -22 86 -132 51 -200 -20 -38 -68 -63 -104 -55 -104 23 -116
215 -16 256 27 11 39 11 69 -1z"/>
<path d="M10119 3948 c-104 -60 -113 -251 -15 -321 44 -31 161 -32 202 -1 54
40 68 70 72 149 4 66 1 80 -22 118 -15 27 -39 51 -60 61 -49 23 -133 20 -177
-6z m125 -38 c58 -22 86 -132 51 -200 -20 -38 -68 -63 -104 -55 -104 23 -116
215 -16 256 27 11 39 11 69 -1z"/>
<path d="M10510 3948 c-49 -33 -74 -89 -74 -163 0 -111 65 -180 161 -173 32 3
61 12 73 23 20 18 20 18 20 -14 0 -90 -75 -131 -173 -97 -37 14 -38 13 -48
-12 -7 -18 -6 -28 3 -34 44 -27 184 -22 226 8 53 39 60 71 64 282 l3 192 -32
0 c-23 0 -33 -5 -33 -16 0 -13 -5 -12 -26 5 -38 30 -119 29 -164 -1z m151 -57
c26 -27 29 -36 29 -96 0 -77 -9 -99 -51 -120 -111 -58 -188 135 -88 219 40 34
74 33 110 -3z"/>
<path d="M6060 3785 l0 -175 35 0 35 0 0 175 0 175 -35 0 -35 0 0 -175z"/>
<path d="M8400 3951 c0 -5 30 -80 66 -167 l65 -159 -18 -34 c-10 -19 -35 -45
-55 -59 -38 -24 -46 -44 -29 -71 22 -34 108 34 152 121 24 48 149 362 149 374
0 2 -17 4 -38 4 l-38 0 -38 -117 c-21 -65 -41 -121 -45 -125 -3 -4 -26 49 -51
118 l-45 124 -37 0 c-21 0 -38 -4 -38 -9z"/>
<path d="M10820 3951 c0 -5 30 -80 66 -167 l65 -159 -18 -34 c-10 -19 -35 -45
-55 -59 -38 -24 -46 -44 -29 -71 22 -34 108 34 152 121 24 48 149 362 149 374
0 2 -17 4 -38 4 l-38 0 -38 -117 c-21 -65 -41 -121 -45 -125 -3 -4 -26 49 -51
118 l-45 124 -37 0 c-21 0 -38 -4 -38 -9z"/>
</g>
</svg>
